<svg width="42" height="105" viewBox="0 0 42 105" fill="none" xmlns="http://www.w3.org/2000/svg">
<path opacity="0.6" d="M42 56H14V98H42V56Z" fill="#AFD7F4"/>
<path d="M28 42H0V56H28V42Z" fill="#00A1E0"/>
<path opacity="0.7" d="M28 56H0V70H28V56Z" fill="#76BDE9"/>
<path opacity="0.4" d="M28 70H0V84H28V70Z" fill="#AFD7F4"/>
<path d="M42 56H28V70H42V56Z" fill="#76BDE9"/>
<path opacity="0.4" d="M42 84H28V98H42V84Z" fill="#AFD7F4"/>
<path opacity="0.4" d="M42 70H28V84H42V70Z" fill="#76BDE9"/>
<path opacity="0.4" d="M28 98C28 94.1341 31.1341 91 35 91C38.8659 91 42 94.1341 42 98H28Z" fill="white"/>
<path opacity="0.7" d="M0 56C3.86587 56 7 59.1341 7 63C7 66.8659 3.86587 70 0 70V56Z" fill="#76BDE9"/>
<path opacity="0.88" d="M28 70C24.1341 70 21 66.8659 21 63C21 59.1341 24.1341 56 28 56V70Z" fill="#AFD7F4"/>
<path opacity="0.25" d="M42 84C38.1341 84 35 80.8659 35 77C35 73.1341 38.1341 70 42 70V84Z" fill="white"/>
<path opacity="0.5" d="M28 98C24.1341 98 21 94.8659 21 91C21 87.1341 24.1341 84 28 84V98Z" fill="white"/>
<path opacity="0.5" d="M42 98C42 101.866 38.8659 105 35 105C31.1341 105 28 101.866 28 98H42Z" fill="#AFD7F4"/>
<path opacity="0.65" d="M42 56C42 59.8654 38.8659 63 35 63C31.1341 63 28 59.8654 28 56H42Z" fill="#00A1E0"/>
<path opacity="0.7" d="M14 56C14 59.8659 10.8659 63 7 63C3.13413 63 0 59.8659 0 56H14Z" fill="#76BDE9"/>
<path opacity="0.8" d="M28 70C28 73.8663 24.8659 77 21 77C17.1341 77 14 73.8663 14 70H28Z" fill="#AFD7F4"/>
<path opacity="0.65" d="M14 70C14 66.1341 17.1341 63 21 63C24.8659 63 28 66.1341 28 70H14Z" fill="#4CB3E6"/>
<path opacity="0.3" d="M14 70C17.8659 70 21 73.1346 21 77C21 80.8663 17.8659 84 14 84V70Z" fill="white"/>
<path opacity="0.25" d="M28 84C31.8659 84 35 87.1346 35 91C35 94.8663 31.8659 98 28 98V84Z" fill="white"/>
<path opacity="0.3" d="M14 84C17.8659 84 21 87.1346 21 91C21 94.8663 17.8659 98 14 98V84Z" fill="white"/>
<path d="M0 42H28V56H42V28H0V42Z" fill="#008ED3"/>
<path d="M0 14.5V29H28H42V0H0V14.5Z" fill="#008ED3"/>
</svg>
